<svg width="127" height="70" viewBox="0 0 127 70" fill="none" xmlns="http://www.w3.org/2000/svg">
<path d="M26.4085 0.548828C41.0005 0.548828 51.8485 13.7008 51.8485 35.1088C51.8485 56.5168 41.0005 69.6688 26.4085 69.6688C11.8165 69.6688 0.968506 56.5168 0.968506 35.1088C0.968506 13.7008 11.8165 0.548828 26.4085 0.548828ZM26.4085 6.69283C15.5605 6.69283 7.88051 17.1568 7.88051 35.1088C7.88051 42.7888 9.32051 49.0288 11.7205 53.7328L38.4085 12.3568C35.2405 8.70883 31.1125 6.69283 26.4085 6.69283ZM26.4085 63.5248C37.2565 63.5248 44.9365 53.0608 44.9365 35.1088C44.9365 27.7168 43.5925 21.5728 41.2885 16.8688L14.7925 58.2448C17.8645 61.7008 21.8965 63.5248 26.4085 63.5248Z" fill="black" style="fill:black;fill:black;fill-opacity:1;"></path>
<rect x="60.5986" y="26.6589" width="65.6514" height="42.26" rx="5.25" stroke="black" style="stroke:black;stroke:black;stroke-opacity:1;" stroke-width="1.5"></rect>
<path d="M113.632 43.9489C116.224 43.9489 118 45.6769 118 48.7969V56.6689H116.08V49.2529C116.08 46.6609 115 45.7729 113.272 45.7729C111.112 45.7729 109.792 47.4289 109.792 49.5649V56.6689H107.872V38.9089H109.792V45.8209H109.84C110.8 44.5729 112.384 43.9489 113.632 43.9489Z" fill="black" style="fill:black;fill:black;fill-opacity:1;"></path>
<path d="M106.068 39.3889L100.764 56.6689H98.4602L94.3562 42.7729H94.3082L90.2042 56.6689H87.9002L82.5962 39.3889H84.9962L88.9802 53.9089H89.0282L93.4202 39.3889H95.2442L99.6362 53.9089H99.6842L103.764 39.3889H106.068Z" fill="black" style="fill:black;fill:black;fill-opacity:1;"></path>
<path d="M81.7126 44.1889L75.8086 49.9969L82.1206 56.6689H79.2886L73.8166 50.6209H73.7686V56.6689H71.8486V38.9089H73.7686V49.4689H73.8166L78.9286 44.1889H81.7126Z" fill="black" style="fill:black;fill:black;fill-opacity:1;"></path>
</svg>