<svg width="90" height="69" viewBox="0 0 90 69" fill="none" xmlns="http://www.w3.org/2000/svg">
<path fill-rule="evenodd" clip-rule="evenodd" d="M42.048 62.8528H7.872V62.6608C11.393 59.0472 26.0033 45.0596 31.0735 40.2056C31.2564 40.0305 31.4269 39.8673 31.584 39.7168C40.128 31.4608 42.144 25.8928 42.144 20.6128C42.144 8.90083 34.176 0.548828 21.216 0.548828C8.736 0.548828 0.576 8.51683 0.192 20.6128H7.104C7.104 12.1648 12.672 6.50083 21.216 6.50083C29.952 6.50083 35.616 11.9728 35.616 20.4208C35.616 26.3728 32.64 30.3088 23.712 38.4688C9.888 51.3328 0 61.6048 0 61.6048V68.8048H42.048V62.8528ZM89.9475 64.3368L72.9555 47.3448L89.9475 30.3528L85.9155 26.3208L68.9235 43.4088L51.9315 26.3208L47.9955 30.3528L64.9875 47.3448L47.9955 64.3368L51.9315 68.3688L68.9235 51.2808L85.9155 68.3688L89.9475 64.3368Z" fill="black" style="fill:black;fill:black;fill-opacity:1;"></path>
</svg>